<?xml version="1.0" encoding="utf-8"?>
<!-- Generator: Adobe Illustrator 22.0.1, SVG Export Plug-In . SVG Version: 6.00 Build 0)  -->
<svg version="1.1" width="50px" height="50px" id="Layer_1" xmlns="http://www.w3.org/2000/svg" xmlns:xlink="http://www.w3.org/1999/xlink" x="0px" y="0px"
	 viewBox="0 0 500 500" style="enable-background:new 0 0 500 500;" xml:space="preserve">
<style type="text/css">
	.st0{fill:#FFFFFF;}
	.st1{fill:#FEA426;}
</style>
<g>
	<path class="st0" d="M500,413.7L500,413.7L500,413.7z M499.9,413.5c-35.7-34.5-78-61.7-124.9-79.3l-94.2-202h-61.6l-94.2,202
		c-46.9,17.6-89.3,44.9-125,79.4L168.4,52.6h163.1L499.9,413.5z"/>
	<path class="st1" d="M0,413.7c65.3-63.3,153.3-102.1,250-102.1c96.7,0,184.6,38.8,250,102l-72.3,33.7
		C377.6,413,316.3,392.8,250,392.8c-66.3,0-127.6,20.3-177.8,54.7L0,413.7z"/>
	<path class="st1" d="M250,293.5c30.3,0,54.8-24.5,54.8-54.8s-24.5-54.8-54.8-54.8c-30.3,0-54.8,24.5-54.8,54.8
		S219.7,293.5,250,293.5z"/>
</g>
</svg>
